<?xml version="1.0" standalone="no"?>
<!DOCTYPE svg PUBLIC "-//W3C//DTD SVG 20010904//EN"
 "http://www.w3.org/TR/2001/REC-SVG-20010904/DTD/svg10.dtd">
<svg version="1.0" xmlns="http://www.w3.org/2000/svg"
 width="3009.000000pt" height="3009.000000pt" viewBox="0 0 3009.000000 3009.000000"
 preserveAspectRatio="xMidYMid meet">
<metadata>
Created by potrace 1.11, written by Peter Selinger 2001-2013
</metadata>
<g transform="translate(0.000000,3009.000000) scale(0.100000,-0.100000)"
fill="#000000" stroke="none">
<path d="M28830 29100 c-67 -12 -98 -16 -290 -45 -96 -14 -200 -30 -230 -35
-30 -5 -71 -11 -90 -14 -52 -7 -431 -64 -535 -81 -49 -8 -110 -17 -135 -20
-25 -3 -56 -8 -70 -10 -62 -10 -289 -44 -330 -50 -25 -3 -52 -8 -60 -10 -8 -2
-37 -6 -65 -10 -27 -3 -75 -10 -105 -15 -30 -5 -71 -11 -90 -14 -41 -6 -634
-95 -670 -101 -14 -2 -70 -11 -125 -20 -55 -9 -113 -18 -130 -20 -16 -2 -91
-14 -165 -25 -74 -11 -151 -23 -170 -25 -19 -3 -78 -12 -130 -20 -176 -27
-554 -84 -690 -104 -74 -11 -153 -23 -175 -26 -22 -3 -65 -10 -95 -15 -44 -8
-493 -76 -625 -95 -184 -27 -506 -76 -530 -80 -16 -3 -48 -8 -70 -11 -22 -3
-96 -14 -165 -25 -69 -10 -143 -22 -165 -25 -22 -4 -49 -8 -60 -10 -19 -3
-258 -39 -335 -50 -19 -3 -46 -7 -60 -9 -14 -3 -41 -7 -60 -10 -19 -2 -96 -14
-170 -25 -74 -11 -148 -22 -165 -25 -86 -12 -382 -57 -465 -71 -52 -8 -108
-17 -125 -19 -16 -2 -59 -8 -95 -14 -36 -5 -85 -13 -110 -16 -25 -3 -74 -11
-110 -16 -36 -6 -76 -13 -90 -15 -14 -2 -131 -20 -260 -39 -129 -20 -246 -37
-260 -40 -14 -2 -61 -9 -105 -15 -44 -7 -89 -14 -100 -16 -11 -2 -40 -7 -65
-10 -25 -3 -56 -7 -70 -9 -51 -8 -423 -65 -685 -105 -148 -22 -315 -47 -370
-56 -55 -9 -111 -17 -125 -19 -62 -9 -508 -77 -530 -80 -14 -3 -72 -12 -130
-20 -58 -9 -116 -18 -130 -20 -14 -2 -45 -7 -70 -10 -25 -3 -72 -10 -105 -15
-100 -16 -125 -20 -264 -41 -74 -11 -138 -22 -143 -25 -4 -3 -8 1 -8 8 0 9 -3
10 -8 2 -4 -6 -29 -14 -57 -18 -27 -4 -61 -9 -75 -11 -14 -2 -68 -11 -120 -19
-52 -8 -111 -17 -130 -20 -181 -26 -374 -55 -400 -61 -8 -2 -40 -6 -70 -10
-30 -3 -77 -10 -105 -15 -50 -9 -70 -12 -200 -31 -38 -5 -81 -11 -95 -14 -14
-2 -70 -10 -125 -19 -464 -72 -445 -69 -565 -86 -94 -13 -131 -19 -265 -40
-129 -20 -199 -31 -395 -60 -69 -10 -170 -25 -225 -34 -55 -8 -118 -18 -140
-21 -22 -4 -67 -10 -100 -15 -33 -5 -78 -12 -100 -15 -22 -4 -51 -8 -65 -10
-14 -2 -101 -16 -195 -30 -93 -14 -215 -32 -270 -41 -55 -8 -118 -17 -140 -21
-22 -3 -49 -7 -60 -9 -19 -4 -189 -29 -265 -40 -19 -3 -60 -9 -90 -14 -30 -5
-73 -12 -95 -15 -35 -5 -122 -18 -195 -30 -92 -15 -311 -47 -340 -51 -19 -2
-45 -6 -57 -9 -12 -3 -39 -7 -60 -10 -53 -7 -342 -50 -499 -74 -72 -12 -148
-23 -170 -26 -21 -2 -50 -7 -64 -9 -14 -3 -41 -7 -60 -10 -83 -11 -257 -37
-275 -41 -19 -4 -70 -12 -128 -20 -51 -7 -111 -16 -332 -50 -121 -18 -240 -36
-265 -40 -25 -4 -117 -18 -205 -31 -88 -14 -176 -27 -195 -30 -19 -3 -77 -12
-129 -20 -51 -8 -112 -17 -135 -20 -22 -3 -113 -17 -201 -30 -88 -14 -232 -36
-320 -49 -88 -13 -236 -35 -330 -49 -206 -32 -225 -35 -272 -41 -21 -3 -49 -8
-63 -10 -14 -3 -43 -7 -65 -10 -22 -4 -65 -10 -95 -15 -30 -5 -73 -12 -95 -15
-23 -3 -50 -7 -60 -9 -11 -2 -45 -7 -75 -11 -30 -4 -93 -13 -140 -20 -47 -8
-101 -16 -120 -19 -19 -2 -93 -13 -165 -24 -137 -22 -845 -130 -905 -138 -19
-3 -75 -12 -125 -19 -115 -18 -156 -24 -202 -30 -36 -5 -84 -13 -128 -21 -11
-2 -85 -13 -165 -24 -80 -12 -154 -23 -165 -25 -22 -5 -80 -14 -135 -21 -19
-2 -46 -6 -60 -9 -14 -3 -41 -7 -60 -10 -19 -3 -80 -12 -135 -20 -55 -8 -134
-20 -175 -26 -41 -5 -96 -17 -123 -24 -222 -65 -448 -331 -530 -626 -15 -51
-38 -142 -53 -201 -14 -59 -30 -106 -34 -103 -5 3 -6 -4 -3 -14 3 -11 0 -35
-6 -54 -7 -19 -13 -43 -15 -53 -5 -22 -126 -495 -163 -634 -13 -52 -26 -102
-28 -110 -2 -8 -29 -114 -60 -235 -31 -121 -79 -308 -106 -415 -28 -107 -62
-238 -75 -290 -14 -52 -27 -102 -29 -110 -14 -57 -149 -586 -301 -1175 -47
-181 -107 -415 -134 -520 -27 -104 -71 -278 -99 -385 -27 -107 -73 -285 -101
-395 -28 -110 -64 -249 -80 -310 -16 -60 -64 -245 -106 -410 -42 -165 -90
-349 -106 -410 -16 -60 -31 -121 -34 -135 -3 -14 -7 -33 -10 -42 -3 -9 -7 -25
-9 -35 -2 -10 -11 -45 -20 -78 -9 -33 -45 -175 -81 -315 -87 -340 -124 -482
-131 -500 -3 -8 -7 -28 -9 -45 -2 -16 -8 -41 -13 -55 -5 -14 -30 -108 -56
-210 -25 -102 -50 -198 -55 -215 -5 -16 -12 -41 -14 -55 -3 -14 -10 -41 -15
-60 -17 -63 -92 -354 -101 -390 -4 -19 -33 -132 -63 -250 -31 -118 -78 -303
-106 -410 -27 -107 -68 -267 -91 -355 -23 -88 -73 -284 -112 -435 -38 -151
-81 -315 -94 -365 -12 -49 -40 -156 -60 -237 -21 -81 -41 -145 -46 -142 -4 3
-5 -1 -2 -9 3 -8 -27 -137 -66 -288 -155 -602 -212 -825 -215 -839 -2 -8 -14
-58 -28 -110 -14 -52 -57 -219 -96 -370 -38 -151 -98 -383 -132 -515 -34 -132
-92 -359 -129 -505 -92 -359 -145 -563 -165 -635 -9 -33 -18 -70 -21 -83 -2
-12 -16 -64 -30 -115 -14 -50 -27 -101 -28 -112 -2 -11 -28 -117 -59 -235 -79
-304 -120 -461 -188 -730 -33 -129 -74 -287 -90 -350 -25 -94 -151 -585 -164
-640 -2 -8 -38 -150 -80 -315 -42 -165 -78 -307 -80 -315 -2 -8 -4 -15 -5 -15
-1 0 -3 -9 -5 -20 -3 -11 -14 -56 -26 -100 -11 -44 -25 -96 -29 -115 -4 -19
-10 -42 -13 -50 -4 -8 -9 -26 -11 -40 -3 -14 -19 -79 -36 -145 -18 -66 -33
-127 -35 -135 -2 -8 -17 -67 -34 -130 -17 -63 -33 -124 -35 -135 -2 -11 -27
-110 -55 -220 -94 -361 -131 -509 -136 -545 -7 -49 -8 -199 -1 -235 21 -113
74 -212 139 -261 77 -58 68 -57 637 -69 162 -3 381 -8 485 -10 194 -5 500 -11
930 -20 132 -3 321 -7 420 -10 99 -2 308 -7 465 -10 157 -3 375 -8 485 -10
110 -3 306 -7 435 -10 129 -3 341 -7 470 -10 129 -3 334 -7 455 -10 121 -2
333 -7 470 -10 363 -8 661 -14 900 -20 456 -10 739 -16 935 -20 450 -10 734
-16 1380 -30 129 -3 334 -7 455 -10 195 -4 389 -8 895 -20 80 -2 214 -4 297
-6 109 -1 151 -5 146 -13 -5 -8 -3 -8 8 0 8 6 54 10 114 8 55 -1 228 -5 385
-9 157 -4 357 -9 445 -10 181 -4 722 -15 925 -20 74 -2 192 -4 263 -5 70 -1
129 -5 131 -8 2 -4 7 -29 10 -57 4 -27 9 -57 11 -65 2 -8 6 -35 9 -60 3 -25 8
-55 10 -66 2 -12 7 -39 10 -60 3 -22 8 -50 11 -64 4 -24 6 -38 20 -145 4 -27
9 -61 11 -75 7 -39 32 -191 39 -235 6 -42 7 -46 24 -160 6 -38 13 -86 16 -105
2 -19 6 -44 8 -55 4 -17 17 -101 22 -145 3 -21 25 -155 45 -272 11 -66 13 -98
6 -98 -7 0 -7 -3 0 -8 11 -7 17 -34 30 -147 4 -27 8 -53 10 -57 3 -4 9 -40 14
-80 5 -40 12 -91 15 -113 19 -136 23 -201 20 -380 -2 -183 -7 -256 -20 -325
-3 -14 -7 -41 -10 -60 -35 -209 -120 -407 -242 -561 -39 -50 -158 -160 -216
-202 -127 -91 -345 -190 -467 -212 -139 -26 -176 -31 -186 -24 -6 5 -15 5 -20
0 -5 -5 -40 -12 -79 -16 -66 -5 -127 -11 -205 -20 -19 -2 -64 -6 -100 -10 -36
-3 -81 -8 -100 -10 -19 -2 -64 -7 -100 -10 -118 -11 -159 -15 -207 -20 -27 -3
-73 -8 -103 -10 -30 -3 -73 -7 -95 -9 -96 -12 -205 -22 -310 -31 -33 -3 -71
-7 -85 -9 -14 -2 -62 -7 -106 -11 -45 -3 -93 -8 -105 -10 -13 -2 -55 -7 -94
-10 -38 -3 -86 -8 -105 -10 -19 -2 -62 -7 -95 -9 -33 -3 -87 -9 -120 -12 -92
-10 -104 -11 -190 -19 -44 -3 -91 -8 -105 -10 -25 -4 -127 -13 -207 -20 -22
-1 -54 -5 -69 -8 -16 -3 -69 -9 -119 -12 -49 -4 -92 -8 -95 -10 -3 -1 -50 -6
-105 -10 -55 -4 -102 -8 -105 -10 -3 -1 -41 -6 -85 -9 -44 -4 -96 -9 -115 -11
-19 -2 -66 -6 -105 -9 -38 -4 -79 -8 -90 -10 -11 -2 -58 -7 -105 -11 -47 -4
-98 -8 -115 -10 -16 -2 -59 -7 -95 -10 -36 -3 -78 -7 -95 -9 -16 -2 -64 -7
-105 -11 -41 -3 -91 -8 -110 -10 -42 -5 -112 -12 -200 -20 -36 -3 -81 -8 -100
-10 -19 -2 -62 -7 -95 -10 -33 -3 -78 -7 -100 -10 -22 -2 -69 -6 -105 -10
-106 -11 -132 -13 -205 -20 -38 -3 -86 -8 -105 -10 -37 -4 -130 -13 -215 -21
-27 -2 -70 -6 -95 -9 -25 -3 -72 -7 -105 -10 -200 -18 -327 -46 -366 -81 -42
-38 -5 -131 63 -159 34 -13 50 -18 111 -29 31 -7 126 -14 402 -31 55 -3 123
-8 150 -10 28 -3 93 -7 145 -10 52 -3 120 -7 150 -10 30 -2 96 -7 145 -10 50
-3 117 -8 150 -10 33 -3 101 -8 150 -11 50 -3 117 -7 150 -9 125 -7 242 -15
300 -20 33 -3 101 -7 150 -10 147 -9 236 -15 305 -20 36 -3 99 -8 140 -11 175
-10 229 -14 300 -19 41 -2 109 -7 150 -10 88 -6 206 -14 305 -21 39 -2 104 -6
145 -9 41 -2 107 -6 145 -9 39 -3 115 -8 170 -12 55 -3 118 -8 140 -9 22 -2
83 -6 135 -9 52 -4 122 -8 155 -11 33 -3 105 -8 160 -11 55 -3 120 -7 145 -9
25 -1 95 -6 155 -9 61 -4 128 -9 150 -11 22 -3 87 -7 145 -10 58 -4 128 -8
155 -10 47 -3 148 -10 290 -20 33 -2 112 -8 175 -12 208 -14 984 -8 1480 12
87 3 177 10 240 19 19 3 62 7 95 11 33 3 76 7 95 10 19 2 64 6 100 10 36 3 79
7 95 9 17 2 59 7 95 11 36 3 81 8 100 10 19 2 64 7 100 10 36 4 76 8 90 10 14
2 54 6 90 10 36 3 81 8 100 10 41 5 112 12 195 21 33 3 71 7 85 9 24 4 115 13
190 20 19 2 60 6 90 9 68 8 126 14 188 21 26 3 65 7 87 10 22 2 67 7 100 10
64 6 122 12 195 20 25 2 72 7 105 11 33 3 71 7 85 9 14 1 59 6 100 9 41 4 86
9 100 11 14 2 59 7 100 10 41 4 82 9 91 10 8 2 49 6 90 10 41 4 85 9 99 10 14
2 59 6 100 9 41 4 86 9 100 11 14 2 54 6 90 10 36 4 76 8 90 10 14 2 59 7 100
10 41 3 84 7 95 9 11 2 52 7 90 11 39 3 84 8 100 10 17 3 62 7 100 10 39 3 81
7 95 10 14 2 57 7 95 10 39 3 84 8 100 10 17 3 46 7 65 9 102 13 335 73 420
108 19 8 37 15 40 15 8 0 211 100 255 125 22 13 48 31 59 41 11 9 23 17 27 17
9 0 129 100 175 147 102 102 164 254 201 493 9 61 9 457 -1 550 -8 75 -32 253
-40 300 -3 14 -7 42 -10 63 -14 94 -62 304 -98 432 -21 77 -41 154 -44 170 -3
17 -12 48 -19 70 -11 32 -40 141 -60 220 -1 6 -5 17 -8 25 -7 17 -55 196 -67
250 -5 19 -16 57 -24 85 -9 27 -18 59 -21 70 -2 11 -13 54 -25 95 -22 81 -28
100 -34 127 -3 10 -9 33 -15 51 -5 18 -10 33 -10 35 0 1 -2 9 -4 17 -10 30
-28 105 -29 115 0 6 -4 17 -9 26 -4 9 -11 29 -13 45 -5 23 -30 116 -60 219 -2
6 -6 24 -11 40 -4 17 -21 77 -36 135 -16 58 -31 114 -34 125 -2 11 -15 58 -29
105 -14 47 -26 91 -26 98 0 13 97 13 815 -3 77 -2 273 -6 435 -9 162 -4 378
-9 480 -11 192 -5 536 -12 915 -20 121 -3 319 -7 440 -10 390 -8 745 -16 945
-20 182 -4 482 -10 920 -20 244 -5 699 -15 930 -20 205 -4 259 3 371 46 143
55 309 195 401 337 23 37 46 70 51 73 5 3 9 9 8 12 0 6 34 88 60 142 5 11 11
31 14 44 2 13 9 38 14 55 10 31 65 325 96 506 9 52 18 108 21 124 3 16 7 32 9
36 2 4 7 25 10 46 2 21 7 53 10 69 16 86 35 194 40 220 3 17 8 45 11 64 3 18
8 43 10 55 17 87 37 194 39 206 2 14 23 139 30 177 2 10 4 18 5 18 1 0 4 14 6
30 5 30 80 448 89 495 11 58 37 198 42 230 2 19 11 67 19 105 7 39 32 167 54
285 21 118 42 226 44 240 3 14 21 113 40 220 19 107 69 382 111 610 41 228 78
429 81 445 74 414 120 670 144 795 16 85 31 171 34 190 3 19 15 85 26 145 36
190 103 557 136 745 28 161 214 1185 224 1235 6 28 24 127 40 220 17 94 35
193 40 220 17 88 39 209 44 245 3 19 12 71 21 114 8 44 18 93 21 110 6 38 108
600 129 711 11 62 80 442 111 615 3 14 43 236 90 494 47 258 87 481 90 495 2
14 6 37 9 51 3 14 55 300 116 635 120 665 121 669 144 800 9 50 25 137 36 195
11 58 24 130 29 160 8 49 33 189 44 245 5 25 36 193 82 445 19 107 51 281 70
385 19 105 37 206 39 225 3 19 8 45 10 56 6 25 46 247 69 374 9 47 18 99 21
115 3 17 64 354 136 750 72 396 148 817 170 935 22 118 47 253 55 300 8 47 28
159 45 250 17 91 41 228 55 305 13 77 33 185 44 240 10 55 31 168 45 250 14
83 32 182 40 220 7 39 19 97 25 130 13 74 227 1256 276 1525 50 274 88 488
124 685 35 192 61 337 161 885 38 212 104 572 145 800 56 305 76 439 77 505 1
194 -83 349 -230 423 -92 47 -200 61 -313 42z"/>
</g>
</svg>
